<svg width="189" height="83" viewBox="0 0 189 83" fill="none" xmlns="http://www.w3.org/2000/svg">
<path d="M61.108 1.40725L6.60077 13.0279C2.95527 13.8051 0.631947 17.3816 1.41149 21.0161L12.9363 74.7494C13.7158 78.3839 17.303 80.7003 20.9485 79.9231L75.4557 68.3024C79.1012 67.5252 81.4246 63.9487 80.645 60.3142L69.1202 6.58095C68.3407 2.94639 64.7535 0.630044 61.108 1.40725Z" fill="#9348F1"/>
<path d="M39.2042 48.7405V44.9741C38.2036 44.4582 36.7029 44.2002 34.702 44.2002C29.5958 44.2002 27.043 48.0352 27.043 55.7058C27.043 61.3123 28.7507 64.1157 32.1662 64.1157C33.6152 64.1157 34.8226 63.6341 35.7887 62.6711C36.7891 61.6735 37.5309 60.332 38.014 58.6467C38.8073 55.7228 39.2042 52.4208 39.2042 48.7405ZM31.804 66.9534C28.8025 66.9534 26.6116 65.9215 25.2317 63.8577C23.8516 61.7939 23.1617 58.8701 23.1617 55.0866C23.1617 51.2686 24.1276 48.0525 26.0597 45.4385C28.0262 42.7899 30.9069 41.4657 34.702 41.4657C36.0475 41.4657 37.3756 41.6032 38.6867 41.8784C40.0322 42.1534 41.3604 42.5492 42.6715 43.0651V56.1701C42.6715 59.6786 42.982 61.8971 43.603 62.8258C44.1893 63.7545 45.1726 64.2189 46.5527 64.2189L46.6562 66.5406C46.1041 66.6782 45.4142 66.747 44.5862 66.747C42.7576 66.747 41.4466 66.1106 40.6532 64.838C40.0666 63.9093 39.7735 62.8086 39.7735 61.536C39.7735 61.1232 39.8079 60.6759 39.877 60.1945H39.5665C38.9799 62.2583 38.0311 63.9093 36.7202 65.1476C35.4436 66.3513 33.8049 66.9534 31.804 66.9534ZM56.812 66.747C55.2251 66.747 54.121 66.3686 53.5 65.6119C52.879 64.8551 52.5685 63.6168 52.5685 61.8971V42.0848H56.2945V59.7818C56.2945 61.6046 56.4325 62.7913 56.7085 63.3418C56.9846 63.8577 57.778 64.1157 59.089 64.1157L59.1925 66.3859C58.399 66.6266 57.6056 66.747 56.812 66.747ZM52.2063 33.9845C52.2063 32.3678 52.9999 31.5595 54.5868 31.5595C56.0358 31.5595 56.7603 32.3505 56.7603 33.9329C56.7603 35.4807 56.0014 36.2546 54.4833 36.2546C52.9652 36.2546 52.2063 35.4977 52.2063 33.9845ZM68.8012 41.6205C69.491 41.8955 69.8362 42.7899 69.8362 44.3034C69.8362 45.7823 69.7153 47.1581 69.4739 48.4309H69.7844C70.5433 45.9887 71.4231 44.2172 72.4237 43.1167C73.424 42.0159 74.9938 41.4657 77.1329 41.4657L78.7372 41.6721L78.2714 45.2321C77.8228 45.1289 77.2708 45.0773 76.6154 45.0773C75.2699 45.0773 74.1141 45.5244 73.1482 46.4188C72.2167 47.2786 71.5266 48.448 71.0782 49.9272C70.2155 52.5756 69.7844 55.551 69.7844 58.8531V66.3343H66.2137V49.6692C66.2137 46.1951 66.0238 43.6326 65.6444 41.9816L68.8012 41.6205Z" fill="white"/>
<path d="M96.6559 66.9534C91.757 66.9534 88.3759 65.1647 86.5129 61.5876C84.7879 58.3198 83.9254 54.0548 83.9254 48.7921C83.9254 43.5295 85.2019 39.1782 87.7549 35.7387C90.308 32.2646 93.8614 30.5276 98.4154 30.5276C100.623 30.5276 102.745 30.8715 104.781 31.5595L104.004 34.4488C102.245 34.1047 100.537 33.9329 98.8812 33.9329C91.6706 33.9329 88.0654 38.9203 88.0654 48.8953C88.0654 56.0154 89.6179 60.5211 92.7229 62.4131C93.9994 63.1697 95.5692 63.5482 97.4322 63.5482C100.434 63.5482 103.142 62.5506 105.557 60.5557L106.385 63.187C104.108 65.6979 100.865 66.9534 96.6559 66.9534ZM112.099 45.6448C112.099 43.9938 111.892 42.7726 111.478 41.9816L114.428 41.4657C115.014 41.6032 115.376 41.9471 115.514 42.4976C115.687 43.0478 115.773 43.6154 115.773 44.2002C115.773 44.613 115.704 46.9863 115.566 51.3203C115.428 55.6197 115.359 58.0103 115.359 58.4919C115.359 58.9733 115.376 59.5238 115.411 60.1429C115.48 60.7275 115.652 61.3467 115.928 62.0003C116.411 63.3418 117.584 64.0125 119.447 64.0125C120.827 64.0125 122 63.5309 122.966 62.5679C123.967 61.5703 124.691 60.2632 125.14 58.6467C126.002 55.7228 126.434 52.524 126.434 49.0501V42.0848H129.901V56.1701C129.901 59.2313 130.125 61.3467 130.574 62.5163C131.022 63.6514 132.023 64.2189 133.575 64.2189L133.679 66.5407C133.127 66.6782 132.437 66.747 131.609 66.747C129.883 66.747 128.676 66.2481 127.986 65.2508C127.331 64.2189 127.003 63.0322 127.003 61.6908C127.003 61.3123 127.02 60.9168 127.055 60.5041H126.744C126.192 62.6022 125.174 64.2016 123.691 65.3024C122.242 66.4029 120.327 66.9534 117.947 66.9534C115.6 66.9534 113.962 66.2311 113.03 64.7864C112.099 63.3418 111.633 61.3639 111.633 58.8531C111.633 58.5435 111.702 56.3249 111.84 52.1974C112.013 48.0698 112.099 45.8855 112.099 45.6448ZM143.159 58.1307V63.445C144.16 63.9609 145.66 64.2189 147.662 64.2189C152.768 64.2189 155.321 60.1945 155.321 52.1458C155.321 46.9863 153.699 44.4066 150.456 44.4066C148.628 44.4066 147.127 45.1805 145.954 46.7283C144.815 48.2762 144.056 50.0131 143.677 51.9394C143.332 53.8311 143.159 55.8949 143.159 58.1307ZM143.263 42.6008C143.263 44.4236 143.125 45.9544 142.849 47.1927H143.159C143.918 45.2321 144.919 43.7874 146.161 42.8587C147.403 41.93 149.042 41.4657 151.077 41.4657C154.079 41.4657 156.183 42.446 157.391 44.4066C158.598 46.3326 159.202 49.2392 159.202 53.1261C159.202 57.0127 158.236 60.2977 156.304 62.9806C154.406 65.629 151.526 66.9534 147.662 66.9534C146.316 66.9534 144.971 66.8157 143.625 66.5407C142.314 66.2654 141.003 65.8699 139.692 65.354V28.4638L143.263 27.8963V42.6008ZM179.301 47.3991C179.301 46.4015 178.991 45.6448 178.37 45.1289C177.749 44.613 176.921 44.355 175.886 44.355C173.816 44.355 172.194 45.2148 171.021 46.9347C169.848 48.6201 169.175 50.6666 169.003 53.0745C175.868 53.0745 179.301 51.1825 179.301 47.3991ZM174.851 66.9534C168.365 66.9534 165.122 62.8258 165.122 54.5707C165.122 50.787 166.07 47.657 167.968 45.1805C169.9 42.704 172.608 41.4657 176.093 41.4657C178.231 41.4657 179.922 41.9816 181.164 43.0135C182.441 44.0109 183.079 45.4039 183.079 47.1927C183.079 48.9469 182.648 50.3915 181.785 51.5266C180.957 52.6272 179.819 53.47 178.37 54.0548C175.644 55.1553 172.487 55.7058 168.899 55.7058C168.899 61.1748 171.09 63.9093 175.472 63.9093C177.68 63.9093 179.767 63.3072 181.733 62.1035L182.303 64.1157C181.44 64.9755 180.301 65.6635 178.887 66.1795C177.507 66.6954 176.161 66.9534 174.851 66.9534Z" fill="#9348F1"/>
</svg>
